<svg width="218" height="48" viewBox="0 0 218 48" fill="none" xmlns="http://www.w3.org/2000/svg">
<g clip-path="url(#clip0_2_3)">
<path d="M124.895 33.4558C124.683 33.4417 124.442 33.4134 124.173 33.3993C123.904 33.371 123.649 33.371 123.409 33.371C123.239 33.371 123.083 33.3852 122.956 33.4276C122.828 33.47 122.715 33.5265 122.602 33.5972C122.489 33.682 122.376 33.7668 122.262 33.8799C122.149 33.9788 122.022 34.106 121.88 34.2473V41.4134H120.012V31.9717H121.569L121.838 33.4558H121.852C121.951 33.3428 122.064 33.2014 122.163 33.0601C122.276 32.9187 122.39 32.7774 122.503 32.6502C122.616 32.523 122.744 32.3958 122.871 32.2968C122.998 32.1837 123.14 32.0989 123.281 32.0283C123.536 31.9152 123.805 31.8445 124.131 31.8163C124.442 31.788 124.796 31.7739 125.164 31.7739L124.895 33.4558Z" fill="#999999"/>
<path d="M127.485 27.5901L128.759 28.8481L127.485 30.106L126.225 28.8481L127.485 27.5901ZM126.579 41.8657V32.424H128.448V41.8657H126.579Z" fill="#999999"/>
<path d="M129.467 32.0848C129.537 32.0707 129.637 32.0424 129.75 32.0141C129.863 31.9859 129.99 31.9576 130.104 31.9435C130.231 31.9152 130.358 31.9011 130.486 31.8869C130.613 31.8728 130.741 31.8728 130.84 31.8728C131.109 31.8728 131.349 31.9011 131.561 31.9576C131.774 32.0141 131.958 32.1413 132.099 32.311C132.298 32.5371 132.51 32.9329 132.765 33.4841C133.019 34.0353 133.274 34.6572 133.543 35.3781C133.812 36.0848 134.081 36.8481 134.35 37.6537C134.619 38.4594 134.859 39.2226 135.086 39.9576H135.128C135.567 39.265 135.935 38.6007 136.232 37.9929C136.53 37.3852 136.756 36.8057 136.94 36.2403C137.11 35.689 137.237 35.1519 137.308 34.6431C137.379 34.1343 137.407 33.6254 137.407 33.1166C137.407 32.9611 137.393 32.7915 137.365 32.5936C137.336 32.4099 137.308 32.2544 137.266 32.1413L138.865 31.8021C138.907 31.9293 138.95 32.0989 138.978 32.2968C139.007 32.4947 139.021 32.6926 139.021 32.8763C139.021 33.583 138.907 34.318 138.681 35.053C138.454 35.8021 138.171 36.5371 137.803 37.2721C137.45 38.0071 137.053 38.7279 136.629 39.4205C136.204 40.1131 135.779 40.7774 135.369 41.4134H133.713C133.43 40.4806 133.147 39.5477 132.821 38.6431C132.51 37.7385 132.198 36.9046 131.915 36.1413C131.618 35.3922 131.349 34.742 131.08 34.1908C130.825 33.6396 130.613 33.258 130.443 33.0459C130.344 32.9187 130.231 32.8198 130.118 32.7491C129.99 32.6784 129.821 32.6502 129.594 32.6502H129.467V32.0848Z" fill="#999999"/>
<path d="M141.215 27.5901L142.488 28.8481L141.215 30.106L139.955 28.8481L141.215 27.5901ZM140.295 41.8657V32.424H142.163V41.8657H140.295Z" fill="#999999"/>
<path d="M150.57 41.4134V34.841C150.57 34.6148 150.556 34.4028 150.514 34.1908C150.471 33.9788 150.4 33.7809 150.287 33.6113C150.174 33.4417 150.004 33.3004 149.792 33.1873C149.58 33.0742 149.296 33.0177 148.943 33.0177C148.716 33.0177 148.461 33.0459 148.207 33.1025C147.938 33.159 147.683 33.2297 147.414 33.3145C147.145 33.3993 146.89 33.4982 146.636 33.5972C146.381 33.7102 146.154 33.8233 145.956 33.9364V41.4134H144.088V31.9717H145.645L145.914 33.0742H145.942C146.154 32.9611 146.395 32.8198 146.678 32.6643C146.961 32.5088 147.258 32.3675 147.584 32.2403C147.909 32.1131 148.249 32 148.589 31.9011C148.943 31.8021 149.296 31.7597 149.65 31.7597C150.061 31.7597 150.429 31.8163 150.768 31.9293C151.108 32.0424 151.405 32.2261 151.646 32.4523C151.887 32.6926 152.085 32.9753 152.226 33.3286C152.368 33.6678 152.439 34.0777 152.439 34.5442V41.4134H150.57Z" fill="#999999"/>
<path d="M156.94 48C156.373 48 155.878 47.9435 155.482 47.8304C155.085 47.7173 154.76 47.576 154.519 47.3781C154.279 47.1943 154.095 46.9682 153.981 46.7279C153.868 46.4735 153.812 46.2191 153.812 45.9364C153.812 45.6961 153.84 45.47 153.911 45.2579C153.981 45.0459 154.052 44.8481 154.165 44.6502C154.265 44.4523 154.378 44.2685 154.505 44.0989C154.633 43.9293 154.774 43.7597 154.901 43.6042L155.369 43.7739C155.269 44.0283 155.199 44.2685 155.142 44.4947C155.1 44.7208 155.071 44.9611 155.071 45.2155C155.071 45.7102 155.269 46.106 155.652 46.4028C156.034 46.6996 156.557 46.841 157.194 46.841C157.831 46.841 158.412 46.7845 158.935 46.6572C159.459 46.53 159.898 46.3463 160.28 46.0777C160.521 45.894 160.705 45.6396 160.818 45.3145C160.931 44.9894 161.002 44.6219 161.002 44.2261C161.002 43.7597 160.846 43.4064 160.549 43.1802C160.238 42.9541 159.728 42.841 159.006 42.841L157.506 42.8269C156.416 42.8127 155.623 42.6714 155.128 42.3887C154.633 42.106 154.392 41.6537 154.392 41.0177C154.392 40.8339 154.434 40.6502 154.505 40.4523C154.59 40.2544 154.689 40.0707 154.802 39.8869C154.93 39.7032 155.071 39.5336 155.213 39.364C155.369 39.1943 155.51 39.0389 155.666 38.8975C155.17 38.6007 154.76 38.1908 154.434 37.6537C154.109 37.1166 153.953 36.4382 153.953 35.6184C153.953 35.0247 154.052 34.4735 154.236 33.9929C154.42 33.5124 154.689 33.1025 155.029 32.7632C155.369 32.424 155.765 32.1696 156.232 31.9859C156.699 31.8021 157.194 31.7173 157.732 31.7173C158.185 31.7173 158.581 31.7456 158.935 31.8021C159.289 31.8587 159.629 31.9293 159.954 32.0424C160.393 32.0283 160.874 31.9859 161.37 31.9293C161.865 31.8728 162.318 31.8021 162.686 31.7173L162.474 32.6643C162.262 32.735 161.993 32.7915 161.681 32.8481C161.37 32.8905 161.073 32.9187 160.804 32.9187C160.959 33.2014 161.087 33.5265 161.2 33.9081C161.313 34.2897 161.37 34.7986 161.37 35.4064C161.37 36.0283 161.271 36.5654 161.058 37.0318C160.846 37.4982 160.577 37.894 160.223 38.2049C159.87 38.5159 159.459 38.7562 158.978 38.9117C158.497 39.0671 157.987 39.1519 157.463 39.1519C157.279 39.1519 157.067 39.1378 156.812 39.1237C156.557 39.1095 156.359 39.0813 156.218 39.0389C156.147 39.1661 156.09 39.3498 156.005 39.5901C155.935 39.8304 155.892 40.0707 155.892 40.311C155.892 40.5936 156.034 40.7915 156.303 40.8905C156.572 40.9894 156.897 41.0459 157.293 41.0459H159.332C159.954 41.0459 160.464 41.0883 160.889 41.1873C161.313 41.2862 161.653 41.4417 161.908 41.6396C162.162 41.8516 162.346 42.106 162.46 42.417C162.573 42.7279 162.63 43.1095 162.63 43.5336C162.63 44.0565 162.488 44.5795 162.205 45.1025C161.922 45.6254 161.526 46.0919 161.016 46.5159C160.506 46.9258 159.898 47.265 159.204 47.5336C158.525 47.8587 157.761 48 156.94 48ZM157.577 38.2332C158.199 38.2332 158.709 38.106 159.091 37.8516C159.275 37.7244 159.417 37.47 159.53 37.0883C159.629 36.7067 159.685 36.1696 159.685 35.477C159.685 35.0954 159.643 34.7279 159.544 34.4028C159.445 34.0777 159.318 33.7809 159.134 33.5406C158.95 33.3004 158.737 33.1025 158.482 32.9611C158.228 32.8198 157.945 32.7491 157.633 32.7491C157.039 32.7491 156.586 32.8622 156.26 33.0883C155.878 33.371 155.694 34.1767 155.694 35.5194C155.694 35.8728 155.737 36.212 155.836 36.5371C155.935 36.8622 156.062 37.1449 156.218 37.3993C156.388 37.6537 156.586 37.8516 156.812 38.0071C157.039 38.1625 157.293 38.2332 157.577 38.2332Z" fill="#999999"/>
<path d="M175.963 37.7668C175.963 38.3039 175.864 38.8269 175.651 39.3357C175.439 39.8445 175.128 40.2968 174.717 40.7067C174.307 41.1166 173.811 41.4417 173.217 41.682C172.622 41.9364 171.943 42.0495 171.179 42.0495C170.372 42.0495 169.664 41.9505 169.027 41.7809C168.39 41.5972 167.81 41.3428 167.258 41.0318L167.951 39.3781C168.15 39.5194 168.404 39.6608 168.687 39.8163C168.971 39.9717 169.282 40.1131 169.593 40.2403C169.919 40.3675 170.244 40.4806 170.598 40.5654C170.938 40.6502 171.278 40.6926 171.603 40.6926C172.042 40.6926 172.424 40.6502 172.75 40.5654C173.061 40.4806 173.33 40.3816 173.528 40.2685C173.641 40.1979 173.74 40.1272 173.854 40.0283C173.953 39.9435 174.038 39.8163 174.123 39.6608C174.208 39.5053 174.264 39.3074 174.307 39.0671C174.349 38.8269 174.377 38.5442 174.377 38.2191C174.377 37.7809 174.278 37.4134 174.094 37.1166C173.91 36.8198 173.655 36.5654 173.344 36.3534C173.033 36.1413 172.679 35.9576 172.283 35.8021C171.886 35.6466 171.49 35.477 171.079 35.3074C170.669 35.1378 170.273 34.9541 169.876 34.742C169.48 34.53 169.126 34.2756 168.815 33.9647C168.503 33.6537 168.249 33.2862 168.065 32.8481C167.881 32.4099 167.782 31.8869 167.782 31.265C167.782 30.8269 167.881 30.4028 168.079 29.9647C168.277 29.5265 168.574 29.1307 168.956 28.7774C169.339 28.424 169.806 28.1272 170.372 27.9152C170.924 27.689 171.561 27.576 172.268 27.576C172.835 27.576 173.372 27.6042 173.868 27.6749C174.363 27.7456 174.859 27.8163 175.354 27.9293L174.929 29.5972C174.406 29.4134 173.854 29.2579 173.288 29.1166C172.721 28.9894 172.183 28.9187 171.688 28.9187C171.306 28.9187 170.966 28.947 170.669 29.0035C170.372 29.0601 170.145 29.1449 169.99 29.2579C169.82 29.3852 169.678 29.5689 169.565 29.8233C169.438 30.0636 169.381 30.4311 169.381 30.9399C169.381 31.3357 169.48 31.6749 169.664 31.9435C169.848 32.212 170.103 32.4523 170.414 32.6502C170.726 32.8481 171.079 33.0318 171.476 33.2014C171.872 33.3569 172.283 33.5265 172.693 33.6961C173.103 33.8657 173.514 34.0636 173.91 34.2756C174.307 34.4876 174.66 34.7562 174.972 35.0671C175.283 35.3781 175.538 35.7597 175.722 36.1979C175.878 36.6078 175.963 37.1449 175.963 37.7668Z" fill="#999999"/>
<path d="M183.96 33.583C183.79 33.4982 183.577 33.4134 183.337 33.3145C183.096 33.2155 182.856 33.1449 182.601 33.0742C182.346 33.0035 182.105 32.947 181.851 32.9046C181.61 32.8622 181.398 32.8339 181.228 32.8339C181.001 32.8339 180.789 32.8763 180.577 32.947C180.365 33.0177 180.152 33.1449 179.94 33.3286C179.841 33.4276 179.742 33.5406 179.643 33.6961C179.544 33.8516 179.459 34.0636 179.388 34.3322C179.317 34.6007 179.26 34.9399 179.218 35.3498C179.176 35.7597 179.161 36.2544 179.161 36.8339C179.161 37.4982 179.218 38.0495 179.317 38.4876C179.416 38.9258 179.572 39.2791 179.784 39.5477C179.996 39.8163 180.251 40 180.563 40.1131C180.874 40.2261 181.228 40.2827 181.638 40.2827C182.105 40.2827 182.573 40.2261 183.082 40.1131C183.577 40 184.03 39.8587 184.441 39.6749L184.696 40.2403C184.455 40.4099 184.2 40.5795 183.917 40.7491C183.634 40.9187 183.337 41.0601 183.025 41.1873C182.714 41.3145 182.389 41.4134 182.049 41.4841C181.709 41.5548 181.355 41.5972 180.987 41.5972C180.464 41.5972 179.968 41.5124 179.501 41.3428C179.034 41.1731 178.638 40.9046 178.298 40.5371C177.958 40.1696 177.689 39.689 177.491 39.0954C177.293 38.5018 177.194 37.7809 177.194 36.9329C177.194 36.1272 177.293 35.3922 177.505 34.7562C177.704 34.1201 178.001 33.5689 178.397 33.1307C178.793 32.6784 179.275 32.3392 179.855 32.1131C180.435 31.8728 181.101 31.7597 181.865 31.7597C182.318 31.7597 182.771 31.788 183.238 31.8304C183.705 31.8869 184.115 31.9435 184.512 32.0141L183.96 33.583Z" fill="#999999"/>
<path d="M188.05 32.4523C188.05 32.5795 188.05 32.7632 188.036 32.9894C188.022 33.2155 188.022 33.3993 188.022 33.5265C188.234 33.4134 188.475 33.2721 188.758 33.1166C189.041 32.9611 189.338 32.8198 189.664 32.6926C189.989 32.5654 190.329 32.4523 190.683 32.3534C191.037 32.2544 191.39 32.212 191.758 32.212C192.169 32.212 192.537 32.2686 192.877 32.3816C193.216 32.4947 193.499 32.6784 193.754 32.9046C193.995 33.1449 194.193 33.4276 194.335 33.7809C194.476 34.1343 194.547 34.5442 194.547 35.0106V41.8516H192.678V35.2933C192.678 35.0671 192.664 34.8551 192.622 34.6431C192.579 34.4311 192.509 34.2332 192.395 34.0495C192.282 33.8799 192.112 33.7385 191.9 33.6254C191.688 33.5124 191.405 33.4558 191.037 33.4558C190.81 33.4558 190.57 33.4841 190.315 33.5406C190.046 33.5972 189.791 33.6678 189.522 33.7527C189.253 33.8375 188.998 33.9364 188.744 34.0353C188.489 34.1484 188.262 34.2615 188.064 34.3746V41.8516H186.196V26.3887L188.064 25.9223V32.4523H188.05Z" fill="#999999"/>
<path d="M200.35 41.8657C198.864 41.8657 197.731 41.4558 196.939 40.6219C196.146 39.788 195.75 38.5724 195.75 36.9753C195.75 36.2261 195.849 35.5336 196.047 34.9258C196.245 34.318 196.528 33.7951 196.925 33.371C197.307 32.947 197.788 32.6219 198.368 32.3958C198.935 32.1696 199.6 32.0565 200.364 32.0565C201.114 32.0565 201.765 32.1696 202.346 32.3816C202.912 32.5936 203.393 32.9187 203.789 33.3286C204.172 33.7527 204.469 34.2615 204.667 34.8693C204.865 35.477 204.95 36.1696 204.95 36.9611C204.95 37.7244 204.851 38.417 204.667 39.0247C204.469 39.6325 204.186 40.1555 203.789 40.5795C203.407 41.0035 202.926 41.3286 202.346 41.5548C201.751 41.7526 201.086 41.8657 200.35 41.8657ZM197.731 36.947C197.731 37.6396 197.774 38.2191 197.873 38.7138C197.972 39.1943 198.128 39.6042 198.326 39.9152C198.538 40.2261 198.807 40.4523 199.133 40.6078C199.458 40.7491 199.855 40.8339 200.307 40.8339C200.69 40.8339 201.015 40.7915 201.284 40.7208C201.567 40.6502 201.836 40.5088 202.119 40.311C202.445 40.0707 202.657 39.6608 202.77 39.0671C202.884 38.4735 202.94 37.7809 202.94 36.9753C202.94 35.6325 202.742 34.6431 202.332 34.0353C201.921 33.4134 201.27 33.1025 200.378 33.1025C200.01 33.1025 199.685 33.1449 199.387 33.2155C199.104 33.2862 198.821 33.4134 198.567 33.5972C198.411 33.7102 198.283 33.8799 198.184 34.106C198.085 34.3322 198 34.5866 197.93 34.8975C197.859 35.1943 197.816 35.5194 197.788 35.8869C197.746 36.2261 197.731 36.5795 197.731 36.947Z" fill="#999999"/>
<path d="M210.244 41.8657C208.757 41.8657 207.625 41.4558 206.832 40.6219C206.04 39.788 205.644 38.5724 205.644 36.9753C205.644 36.2261 205.743 35.5336 205.941 34.9258C206.139 34.318 206.422 33.7951 206.804 33.371C207.186 32.947 207.668 32.6219 208.248 32.3958C208.814 32.1696 209.479 32.0565 210.244 32.0565C210.994 32.0565 211.645 32.1696 212.225 32.3816C212.791 32.5936 213.273 32.9187 213.669 33.3286C214.051 33.7527 214.348 34.2615 214.532 34.8693C214.73 35.477 214.83 36.1696 214.83 36.9611C214.83 37.7244 214.73 38.417 214.532 39.0247C214.334 39.6325 214.051 40.1555 213.669 40.5795C213.287 41.0035 212.805 41.3286 212.225 41.5548C211.645 41.7526 210.98 41.8657 210.244 41.8657ZM207.625 36.947C207.625 37.6396 207.668 38.2191 207.767 38.7138C207.866 39.1943 208.021 39.6042 208.22 39.9152C208.432 40.2261 208.701 40.4523 209.026 40.6078C209.352 40.7491 209.748 40.8339 210.215 40.8339C210.597 40.8339 210.923 40.7915 211.192 40.7208C211.475 40.6502 211.744 40.5088 212.027 40.311C212.353 40.0707 212.565 39.6608 212.678 39.0671C212.791 38.4735 212.848 37.7809 212.848 36.9753C212.848 35.6325 212.65 34.6431 212.239 34.0353C211.829 33.4134 211.178 33.1025 210.286 33.1025C209.918 33.1025 209.593 33.1449 209.295 33.2155C208.998 33.2862 208.729 33.4134 208.474 33.5972C208.319 33.7102 208.191 33.8799 208.092 34.106C207.993 34.3322 207.908 34.5866 207.837 34.8975C207.767 35.1943 207.724 35.5194 207.696 35.8869C207.639 36.2261 207.625 36.5795 207.625 36.947Z" fill="#999999"/>
<path d="M216.132 42.1484V26.6572L218 26.1908V42.1484H216.132Z" fill="#999999"/>
<path d="M106.721 27.8445C107.018 27.8021 107.372 27.7739 107.769 27.7456C108.165 27.7173 108.575 27.689 109 27.6608C109.425 27.6325 109.863 27.6184 110.302 27.6042C110.741 27.5901 111.18 27.5901 111.59 27.5901C112.666 27.5901 113.643 27.7314 114.534 28C115.412 28.2686 116.162 28.6784 116.799 29.2297C117.422 29.7809 117.903 30.4735 118.243 31.3074C118.582 32.1413 118.752 33.1307 118.752 34.2473C118.752 35.3781 118.596 36.424 118.285 37.371C117.974 38.318 117.507 39.1378 116.87 39.8163C116.247 40.4947 115.468 41.0318 114.534 41.4134C113.6 41.7951 112.524 41.9929 111.279 41.9929C110.458 41.9929 109.637 41.9647 108.83 41.9223C108.023 41.8799 107.316 41.8233 106.707 41.7526V27.8445H106.721ZM108.646 40.8339C108.929 40.8763 110.359 41.0035 110.812 41.0035C111.703 41.0177 112.51 40.947 113.218 40.7915C113.926 40.636 114.506 40.3958 114.959 40.0848C115.185 39.9293 115.398 39.7173 115.61 39.4488C115.822 39.1802 116.02 38.8269 116.176 38.3746C116.346 37.9364 116.473 37.3993 116.587 36.7633C116.686 36.1272 116.742 35.364 116.742 34.4876C116.742 33.3852 116.587 32.4664 116.261 31.7173C115.935 30.9682 115.511 30.3604 114.973 29.9081C114.435 29.4417 113.827 29.1166 113.119 28.9187C112.425 28.7208 111.689 28.6219 110.953 28.6219C110.628 28.6219 110.359 28.6219 110.146 28.636C109.934 28.6502 109.736 28.6502 109.566 28.6643C109.396 28.6784 109.241 28.6926 109.099 28.7067C108.958 28.7208 108.802 28.7491 108.618 28.7633V40.8339H108.646Z" fill="#999999"/>
<path d="M94.0958 42.2332H92.086L90.4441 38.0919H83.8908L82.348 42.2332H80.3381L86.2687 27.477H88.1511L94.0958 42.2332ZM89.8496 36.5371L87.4293 30.2474C87.3444 30.0353 87.2736 29.7102 87.1887 29.258H87.1462C87.0754 29.682 86.9905 30.0071 86.8914 30.2474L84.4853 36.5371H89.8496Z" fill="#2E3192"/>
<path d="M104.386 42.2332H96.3605V27.477H98.1722V40.6643H104.386V42.2332Z" fill="#2E3192"/>
<path d="M12.4838 42.1343C11.4223 42.7138 10.106 42.9965 8.53487 42.9965C6.49669 42.9965 4.86898 42.318 3.65173 40.9753C2.43449 39.6325 1.81171 37.8657 1.81171 35.6749C1.81171 33.3286 2.50526 31.4346 3.8782 29.9788C5.25114 28.5371 6.99208 27.8021 9.11518 27.8021C10.474 27.8021 11.5921 28 12.4838 28.4099V30.2474C11.4647 29.6537 10.3324 29.371 9.10103 29.371C7.45916 29.371 6.12868 29.9364 5.1096 31.0671C4.09051 32.1979 3.58096 33.6961 3.58096 35.576C3.58096 37.371 4.0622 38.7845 5.01052 39.8445C5.95884 40.9046 7.21854 41.4417 8.76133 41.4417C10.1909 41.4417 11.4364 41.1166 12.4838 40.4523V42.1343Z" fill="#2E3192"/>
<path d="M20.8772 42.9965C18.8531 42.9965 17.2254 42.3039 16.0082 40.9329C14.7909 39.5618 14.1823 37.7809 14.1823 35.576C14.1823 33.2155 14.8051 31.3357 16.0506 29.9223C17.2962 28.523 18.9805 27.8163 21.1178 27.8163C23.0852 27.8163 24.6846 28.4947 25.8877 29.8657C27.0908 31.2367 27.6994 33.0177 27.6994 35.2226C27.6994 37.6254 27.0766 39.5194 25.8452 40.9046C24.6138 42.2897 22.9578 42.9965 20.8772 42.9965ZM21.0045 29.371C19.5042 29.371 18.287 29.9223 17.3528 31.0389C16.4186 32.1555 15.9516 33.6113 15.9516 35.4205C15.9516 37.2297 16.4045 38.6855 17.3245 39.788C18.2445 40.8905 19.4335 41.4417 20.8913 41.4417C22.4624 41.4417 23.6938 40.9187 24.5997 39.8587C25.5055 38.8127 25.9584 37.3428 25.9584 35.4488C25.9584 33.5124 25.5197 32.0141 24.6421 30.9541C23.7504 29.9081 22.5473 29.371 21.0045 29.371Z" fill="#2E3192"/>
<path d="M39.1358 42.4594H29.6526V27.8163H31.6342V40.9046H38.4564L39.1358 42.4594Z" fill="#2E3192"/>
<path fill-rule="evenodd" clip-rule="evenodd" d="M88.7456 23.7032C88.8305 23.576 88.9155 23.4629 89.0004 23.3498C89.6798 22.417 90.345 21.4841 90.6564 20.3534C91.0103 19.0954 90.6423 18.0777 89.6515 17.2438C88.6041 16.3675 87.3868 15.8304 86.1271 15.3781C83.6785 14.5018 81.1449 13.9647 78.583 13.5689C76.1202 13.1873 73.6433 13.0177 71.1663 12.8622C69.1565 12.735 67.1324 12.636 65.1084 12.5795C63.1269 12.523 61.1311 12.4664 59.1496 12.4806C56.8283 12.5088 54.5071 12.5371 52.1858 12.6784C50.2467 12.8057 48.2935 12.9329 46.3685 13.2721C46.1562 13.3145 45.9581 13.3286 45.8024 13.1307C44.7267 11.7739 44.0331 10.2756 44.0897 8.4947C44.1463 6.65724 44.9814 5.20141 46.3261 4.01413C47.9962 2.53004 50.0061 1.80919 52.1717 1.41343C53.0917 1.24382 54.04 1.17314 55.0591 1.11661C53.2615 1.0318 51.5347 0.932862 49.8221 0.876325C47.4867 0.791519 45.1513 0.720848 42.8159 0.763251C40.3814 0.805654 37.9469 0.890459 35.5124 1.08834C31.2804 1.42756 27.0908 2.0212 22.9861 3.12367C18.839 4.24028 14.89 5.79505 11.3232 8.19788C11.125 8.32509 10.941 8.4523 10.7004 8.62191C10.7146 8.43816 10.8278 8.39576 10.8986 8.32509C14.338 5.4417 18.287 3.47703 22.5756 2.19081C25.4772 1.30035 28.4496 0.763251 31.4502 0.424028C35.2718 -0.0141342 39.1075 -0.0424028 42.9433 0.0424028C45.7599 0.113074 48.5765 0.325088 51.3932 0.593639C53.3181 0.777385 55.2431 1.04594 57.1822 1.18728C60.0696 1.39929 62.8438 2.10601 65.5189 3.19435C69.1282 4.66431 72.3836 6.72791 75.3842 9.22968C75.5258 9.34276 75.6673 9.45583 75.8372 9.59717C75.9929 9.22968 75.9787 8.86219 76.0636 8.52297C76.2193 7.92933 76.5024 7.70318 77.111 7.77385C78.6821 7.9576 80.1683 8.42403 81.5271 9.27208C82.0083 9.5689 82.0932 9.86572 81.8668 10.3887C81.8243 10.4876 81.7818 10.5724 81.7252 10.6714C81.0458 11.9152 80.3806 12.2261 79.0077 11.9435C78.9794 11.9435 78.951 11.9152 78.8944 11.8587C79.1492 11.7739 79.3757 11.8021 79.6021 11.8021C79.8852 11.8021 80.0975 11.7032 80.2815 11.5053C80.5646 11.1943 80.7628 10.8269 80.9184 10.4311C81.0317 10.1625 80.9609 9.92226 80.7061 9.76678C79.503 8.9894 78.1726 8.56537 76.743 8.43816C76.375 8.40989 76.2476 8.5371 76.191 8.90459C76.191 8.91873 76.191 8.93286 76.191 8.93286C75.9929 9.5689 76.2052 10.0071 76.7289 10.417C77.5073 11.053 78.215 11.788 78.8944 12.5371C79.0643 12.7208 79.2483 12.8057 79.4889 12.8481C81.98 13.3145 84.4428 13.8799 86.8207 14.7986C88.0238 15.265 89.1844 15.8163 90.1893 16.6643C90.9395 17.3004 91.5057 18.0495 91.5623 19.0671C91.6047 19.8304 91.35 20.523 90.9819 21.1873C90.4441 22.1343 89.7222 22.9258 88.9438 23.689C88.873 23.7173 88.8447 23.7456 88.7456 23.7032ZM78.7529 12.6926C78.767 12.6643 78.767 12.636 78.7812 12.6219C78.3424 12.2827 77.9036 11.9293 77.4649 11.5901C75.1436 9.78092 72.8224 7.98586 70.3171 6.45936C65.1226 3.30742 59.5317 2.09187 53.5163 3.06714C51.6338 3.36396 49.8504 4 48.3076 5.17314C46.2128 6.77032 45.675 9.06007 46.8214 11.3781C46.9488 11.6466 47.1187 11.7597 47.4159 11.7173C48.6756 11.5477 49.9353 11.4629 51.195 11.3922C54.0258 11.2509 56.8566 11.1943 59.6874 11.2085C63.6647 11.2367 67.6278 11.4205 71.5768 11.7739C73.3177 11.9293 75.0445 12.1272 76.7572 12.3816C77.4224 12.4947 78.0876 12.5936 78.7529 12.6926Z" fill="#999999"/>
<path fill-rule="evenodd" clip-rule="evenodd" d="M0.014154 22.0495C0.594468 22.106 1.18894 22.1625 1.76925 22.2332C3.25542 22.3887 4.74159 22.5442 6.24192 22.6996C7.9404 22.8693 9.63888 23.053 11.3374 23.2226C12.7386 23.364 14.1399 23.477 15.5269 23.6749C17.7633 23.9859 19.9855 24.3534 22.2076 24.6784C24.359 24.9894 26.5246 25.1873 28.7043 25.0459C30.8982 24.9046 32.9788 24.311 34.9887 23.4346C37.2392 22.4594 39.3481 21.2579 41.4288 19.9859C41.5137 19.9293 41.6128 19.8728 41.6977 19.8304C41.7119 19.8163 41.7402 19.8304 41.8251 19.8587C41.4146 20.1696 41.0466 20.4523 40.6786 20.735C38.7254 22.2049 36.7296 23.6042 34.5358 24.6926C32.4551 25.7244 30.2613 26.3322 27.9117 26.4311C25.9726 26.5159 24.0618 26.318 22.151 26.0495C19.0796 25.6113 16.0223 25.1166 12.9792 24.5371C9.0161 23.8021 5.05298 23.0671 1.10401 22.3322C0.736008 22.2615 0.382158 22.2049 0.014154 22.1343C1.48374e-10 22.106 0.014154 22.0777 0.014154 22.0495Z" fill="#999999"/>
<path fill-rule="evenodd" clip-rule="evenodd" d="M20.4667 17.7102C21.3584 17.371 22.2218 17.2014 23.0852 17.0459C25.4631 16.636 27.8692 16.636 30.2754 16.7208C31.6625 16.7633 33.0638 16.8339 34.4367 17.0459C34.7764 17.1025 35.1019 17.1731 35.4133 17.3145C35.8946 17.5406 36.1069 17.9223 36.0078 18.4452C35.6822 19.9435 34.9462 21.1731 33.6865 22.0777C32.4976 22.9399 31.1671 23.4064 29.7093 23.5336C28.492 23.6466 27.2889 23.7173 26.0575 23.6466C24.3307 23.5477 22.6464 23.2226 20.9762 22.841C19.9288 22.6007 18.8956 22.3463 17.834 22.2191C17.7774 22.2191 17.7208 22.2049 17.6925 22.106C17.8057 22.0071 17.9473 22.0495 18.0747 22.0495C19.7731 22.0071 21.4575 22.2756 23.1276 22.5018C24.628 22.6996 26.1141 22.9258 27.6286 22.8834C29.4262 22.841 31.0397 22.3463 32.2711 20.947C32.4551 20.7491 32.5967 20.523 32.7382 20.2968C32.8656 20.0989 32.8231 20.0141 32.5967 19.9717C31.8748 19.8728 31.153 19.7597 30.4311 19.6608C28.9449 19.4488 27.4446 19.3498 25.9584 19.3357C24.8969 19.3216 23.8212 19.364 22.7596 19.5477C22.6747 19.5618 22.5756 19.6042 22.4624 19.5336C22.7596 19.3498 23.0852 19.3357 23.3824 19.2933C25.4631 18.9399 27.5437 18.9399 29.6385 19.1095C30.7425 19.1943 31.8324 19.3074 32.9222 19.4629C33.1628 19.4912 33.177 19.3357 33.2478 19.1802C33.3185 18.9965 33.2195 18.9258 33.0779 18.8693C32.441 18.629 31.7616 18.5724 31.0964 18.4876C29.1997 18.2615 27.2889 18.106 25.364 18.1201C24.1043 18.1343 22.8587 18.2191 21.6273 18.4594C21.5141 18.4735 21.415 18.5442 21.2593 18.4735C21.6273 18.2898 21.9953 18.2332 22.3633 18.1625C24.4581 17.7527 26.5812 17.682 28.7043 17.7809C30.148 17.8516 31.6059 17.9647 33.0354 18.1343C33.1204 18.1484 33.2478 18.1908 33.2902 18.0919C33.3468 17.9788 33.2336 17.894 33.1628 17.8375C32.9222 17.6396 32.625 17.5689 32.3277 17.4982C31.4785 17.3145 30.601 17.2862 29.7376 17.2297C28.2939 17.1307 26.836 17.1166 25.3781 17.1449C23.8495 17.1873 22.3209 17.3145 20.8205 17.682C20.7498 17.7244 20.6507 17.7809 20.4667 17.7102Z" fill="#999999"/>
<path fill-rule="evenodd" clip-rule="evenodd" d="M81.3148 26.0919C81.4846 26.4452 81.4988 26.7986 81.7111 27.1378C84.8957 31.4205 86.5376 24.5654 86.5518 24.4947C86.7499 23.053 86.7216 21.682 86.6084 21.159C86.4951 20.636 86.4385 19.5901 84.8391 18.7562C83.9191 18.4735 84.8816 18.5159 85.0656 18.53C85.8724 18.6148 86.3677 19.1237 86.7358 19.7597C87.2311 20.5795 87.4435 21.4841 87.5001 22.417C87.5991 24.0707 86.6084 27.0954 86.6084 27.0954L86.113 27.1095C86.113 27.1095 85.4902 28.7491 85.1788 28.9753C85.0656 29.0601 84.9524 29.1307 84.8391 29.2014C84.004 29.6961 83.0982 29.583 82.4329 28.8905C81.7111 28.1413 81.428 27.1943 81.2723 26.2191C81.2723 26.2049 81.3006 26.1767 81.3148 26.0919Z" fill="#999999"/>
<path fill-rule="evenodd" clip-rule="evenodd" d="M76.4316 11.7173C75.6107 11.6749 74.8605 11.5336 74.167 10.9682C71.8033 9.10247 69.3263 7.39223 66.5946 6.10601C64.1743 4.96113 61.6407 4.25442 58.9797 4.01413C56.5169 3.80212 54.0825 3.87279 51.6904 4.50883C50.6713 4.77738 49.6947 5.14488 48.803 5.71025C48.7464 5.75265 48.6898 5.82332 48.5624 5.78092C48.6898 5.61131 48.8738 5.49823 49.0436 5.38516C50.5298 4.38163 52.1858 3.84452 53.9409 3.59011C57.6351 3.03887 61.2585 3.33569 64.797 4.52297C67.4297 5.41343 69.8076 6.78445 72.0864 8.35336C73.5301 9.34276 74.9172 10.417 76.3042 11.4912C76.3609 11.5336 76.4316 11.576 76.5024 11.6325C76.4741 11.6608 76.4458 11.689 76.4316 11.7173Z" fill="#999999"/>
<path fill-rule="evenodd" clip-rule="evenodd" d="M73.6575 11.3216C72.9356 11.1802 72.1713 11.3781 71.5202 10.841C69.4112 9.08834 67.1891 7.51943 64.7263 6.30389C63.3816 5.65371 62.0087 5.10247 60.565 4.70671C60.4518 4.67844 60.3527 4.63604 60.2678 4.56537C65.4481 5.39929 69.7368 7.97173 73.6575 11.3216Z" fill="#999999"/>
<path fill-rule="evenodd" clip-rule="evenodd" d="M52.6246 43.6184C52.6246 43.6184 53.3889 42.9399 54.04 42.2473C55.4696 40.7208 56.3896 38.9541 56.616 36.5371C56.7717 34.9682 56.7293 33.4134 56.3188 31.8728C55.5828 29.1025 53.7994 27.364 51.0252 26.6572C50.9261 26.629 50.827 26.6007 50.728 26.5724C50.7138 26.5724 50.6997 26.53 50.6713 26.4735C51.1243 26.417 51.5347 26.3463 51.9735 26.3604C54.5637 27.1095 56.0923 28.1696 57.1256 30.6148C57.8191 32.2262 58.0456 33.8516 58.0031 35.6042C57.9748 36.5512 57.7625 37.6113 57.5785 38.6148C57.9323 38.3463 59.0505 37.583 59.0505 37.583L59.1496 40C59.1496 40 58.173 40.4523 57.0123 41.159" fill="#999999"/>
<path fill-rule="evenodd" clip-rule="evenodd" d="M86.1979 17.5972C85.5468 17.371 84.8957 17.1449 84.2022 17.1307C83.1123 17.1025 82.2489 17.5548 81.5554 18.3746C80.7345 19.3357 80.2674 20.4947 79.8994 21.682C79.3898 23.3357 79.0784 25.0318 79.1067 26.7845C79.1067 27.0671 78.8237 27.2226 78.8237 27.2226H76.5732C76.5732 27.2226 77.0827 26.9399 77.6064 26.7986C78.0027 26.6996 78.116 26.5018 78.1584 26.1343C78.3 24.5654 78.5972 23.0106 79.0784 21.4982C79.5031 20.1555 80.0834 18.8975 81.1025 17.894C82.3622 16.636 83.8625 16.3816 85.476 17.1307C85.7308 17.258 85.9997 17.371 86.1979 17.5972Z" fill="#999999"/>
<path d="M72.8365 42.4028H70.6143L62.6598 30.6431C62.4616 30.3463 62.2918 30.0353 62.1644 29.7102H62.0936C62.1502 30.0212 62.1785 30.6996 62.1785 31.7314V42.4028H60.3668V27.6466H62.7164L70.4586 39.2226C70.7842 39.7032 70.9965 40.0283 71.0814 40.212H71.1239C71.0531 39.788 71.0107 39.0671 71.0107 38.0353V27.6466H72.8224V42.4028H72.8365Z" fill="#2E3192"/>
<path d="M79.5597 27.477V28.9611H78.3424V40.7491H79.5597V42.2332H74.7331V40.7491H76.2476V28.9611H74.7331V27.477H79.5597Z" fill="#2E3192"/>
<path d="M48.3501 42.6855C46.3968 42.6855 44.8399 42.0212 43.6651 40.7067C42.4903 39.3922 41.91 37.6678 41.91 35.5477C41.91 33.2721 42.5045 31.4629 43.7076 30.106C44.9107 28.7491 46.5384 28.0707 48.5907 28.0707C50.4873 28.0707 52.016 28.735 53.1766 30.0495C54.3372 31.364 54.9175 33.0883 54.9175 35.2085C54.9175 37.5124 54.3231 39.3357 53.1341 40.6784C51.9311 42.0212 50.3458 42.6855 48.3501 42.6855ZM48.4633 29.5689C47.0196 29.5689 45.8448 30.106 44.939 31.1802C44.0331 32.2544 43.5802 33.6537 43.5802 35.4064C43.5802 37.1449 44.019 38.5442 44.8965 39.6184C45.7741 40.6784 46.9205 41.2155 48.3359 41.2155C49.8504 41.2155 51.0394 40.7067 51.9027 39.7032C52.7661 38.6855 53.2049 37.2721 53.2049 35.4488C53.2049 33.583 52.7803 32.1413 51.9311 31.1237C51.1101 30.0777 49.9495 29.5689 48.4633 29.5689Z" fill="#2E3192"/>
<path fill-rule="evenodd" clip-rule="evenodd" d="M78.116 21.0459C78.116 21.2014 78.0169 21.2438 77.9603 21.3004C75.8513 23.0247 73.431 24.0424 70.7417 24.4664C68.378 24.8481 66.0001 24.7915 63.6223 24.6078C60.565 24.3816 57.536 24.1272 54.4646 24.0989C51.2658 24.0707 48.1095 24.2544 45.3494 26.0353C41.7826 28.3251 39.8152 31.4629 39.7586 34.9258C39.7586 37.8516 40.7069 40.3251 42.094 41.5689C43.3537 42.6996 45.038 43.4346 45.038 43.4346C45.038 43.4346 42.1082 43.2792 40.5937 41.6961C39.3764 40.424 36.2201 35.8869 39.702 29.1025C40.9617 27.0813 43.1273 24.7633 46.9771 23.6749C50.0627 22.7421 52.8652 22.6572 55.4695 22.7845C59.2628 22.8127 61.0604 23.3216 63.8629 23.5618C65.066 23.6608 66.2691 23.7456 67.4863 23.7597C70.8125 23.8021 74.0396 23.3357 77.0119 21.6961C77.2101 21.583 77.3941 21.4841 77.5923 21.371C77.748 21.2721 77.9178 21.159 78.116 21.0459Z" fill="#999999"/>
</g>
<defs>
<clipPath id="clip0_2_3">
<rect width="218" height="48" fill="white"/>
</clipPath>
</defs>
</svg>
